<svg t="1742290959542" class="icon" viewBox="0 0 1024 1024" version="1.1" xmlns="http://www.w3.org/2000/svg" p-id="6246" width="32" height="32"><path d="M950.272 958.464l-76.025756-66.834732c-19.880585-18.881561-45.955122-29.571122-73.528195-29.571122h-0.999025c-28.572098 0-55.146146 11.189073-75.026731 31.669074L680.635317 938.083902c-6.593561 6.593561-15.285073 10.190049-24.476097 10.190049s-17.882537-3.596488-24.476098-10.190049l-45.45561-45.455609c-19.880585-19.880585-46.454634-30.670049-75.026732-31.169561-28.072585 0-54.646634 10.689561-75.026731 30.670048l-46.954147 46.454635c-13.287024 13.287024-35.265561 13.287024-48.452682 0l-46.954147-46.454635c-19.880585-19.880585-46.454634-30.670049-75.026732-30.670048-28.072585 0-54.147122 10.689561-74.027707 30.070634l-74.027707 66.335219c-14.785561 13.287024-15.784585 36.264585-2.597464 51.050147 13.287024 14.785561 36.264585 15.784585 51.050147 2.597463l75.026731-66.834732c0.499512-0.499512 0.999024-0.999024 1.498537-0.999024 13.287024-13.287024 35.265561-13.287024 48.452683 0l46.954146 46.454634c19.880585 19.880585 46.454634 30.670049 75.026732 30.670049 28.072585 0 54.646634-10.689561 75.026732-30.670049l46.954146-46.454634c13.287024-13.287024 35.265561-13.287024 48.452683 0l45.45561 45.45561c19.880585 19.880585 46.954146 31.169561 75.026731 31.169561h0.499513c28.572098 0 55.146146-11.189073 75.526244-31.669073l43.85717-44.456586c13.287024-13.287024 35.265561-13.786537 48.452683-0.499512l1.498537 1.498537 76.625171 67.434146c6.593561 6.094049 15.285073 9.191024 23.976585 9.191024 10.190049 0 19.880585-4.096 27.073561-12.288 11.988293-14.785561 10.989268-37.763122-4.295805-51.050146z m0 0" p-id="6247" fill="#112F66"></path><path d="M963.459122 439.770537L835.883707 384.62439V222.782439c0-14.785561-9.191024-28.072585-22.977561-33.667122l-226.179122-87.814244V0.699317H439.670634v100.601756L205.299512 191.612878c-13.786537 5.594537-22.977561 18.881561-22.977561 33.667122V386.622439L59.342049 439.770537c-18.881561 8.192-26.074537 31.669073-14.286049 49.052097l189.914537 304.802342c4.096 6.094049 10.190049 10.190049 17.383024 11.189073 33.667122 6.593561 64.836683 22.977561 89.812293 47.453658l3.596487 3.596488c10.689561 10.190049 27.573073 10.190049 38.262635 0l3.596487-3.596488c33.16761-32.668098 77.124683-50.550634 123.579317-50.550634h0.499513c46.954146 0 90.91122 18.382049 124.078829 51.050147l1.498537 1.498536c10.689561 10.689561 28.072585 10.689561 38.262634 0 26.074537-26.074537 58.742634-43.357659 95.007219-49.55161 7.192976-0.999024 13.786537-5.095024 17.882537-11.189073l189.914536-304.802341c10.689561-17.283122 3.996098-40.760195-14.885463-48.952195z m-199.605073-86.315708l-226.678634-98.004292c-16.384-7.093073-35.265561-7.093073-51.549659 0L254.35161 355.55278V249.856l257.848195-99.502829 251.654244 97.50478v105.596878z m0 0" p-id="6248" fill="#112F66"></path></svg>