<svg t="1744020978225" class="icon" viewBox="0 0 1024 1024" version="1.1" xmlns="http://www.w3.org/2000/svg" p-id="5725" width="48" height="48"><path d="M876.463 911.174h-728.927c-60.743 0-121.486 34.714-121.486 69.422 0 17.354 17.354 26.033 52.066 26.033h867.77c26.033 0 52.066-17.354 52.066-26.033 0-34.714-52.066-69.422-121.486-69.422z" p-id="5726" fill="#112F66"></path><path d="M859.106 8.69h-685.539c-78.1 0-138.843 69.422-138.843 156.197v668.18c0 34.714 17.354 52.066 52.066 52.066h867.77c26.033 0 52.066-26.033 52.066-52.066v-668.18c-8.677-86.778-69.422-156.197-147.522-156.197zM190.926 216.957c0-43.387 34.714-78.1 78.1-78.1h503.31c43.387 0 78.1 34.714 78.1 78.1v321.074c0 17.354-8.677 26.033-26.033 26.033h-607.44c-17.354 0-26.033-8.677-26.033-26.033v-321.074zM390.514 789.686c0 26.033-17.354 34.714-34.714 34.714h-182.231c-17.354 0-34.714-17.354-34.714-34.714v-86.778c0-26.033 17.354-34.714 34.714-34.714h182.231c17.354 0 34.714 17.354 34.714 34.714v86.778zM885.141 789.686c0 26.033-17.354 34.714-34.714 34.714h-182.231c-17.354 0-34.714-17.354-34.714-34.714v-86.778c0-26.033 17.354-34.714 34.714-34.714h182.231c17.354 0 34.714 17.354 34.714 34.714v86.778z" p-id="5727" fill="#112F66"></path></svg>