<svg t="1746591621211" class="icon" viewBox="0 0 1024 1024" version="1.1" xmlns="http://www.w3.org/2000/svg" p-id="4782" width="26" height="26"><path d="M511.879963 599.189317c106.545666 0 192.911795-86.892055 192.911795-194.12371s-86.366129-194.135144-192.911795-194.135144-192.888929 86.892055-192.888929 194.123711 86.366129 194.135144 192.888929 194.135143z m0-317.704792c67.455674 0 122.334867 55.427984 122.334866 123.581082s-54.879193 123.569649-122.334866 123.569648-122.334867-55.427984-122.334867-123.569648 54.879193-123.592515 122.334867-123.592515z" p-id="4783" fill="#000000"></path><path d="M930.96263 783.663436c-47.424769-18.293064-110.558707-32.275825-184.977179-42.051181l29.72623-29.726229c85.748738-74.315573 140.159171-183.97106 140.159171-306.56889C915.870852 181.467197 735.043912 0 511.982861 0S108.09487 181.501496 108.09487 405.351436c0 119.842437 52.135233 227.176991 134.511188 301.401099l34.813988 34.905453c-75.218793 9.901121-138.718592 24.158278-186.303426 42.748604-45.3325 19.436381-86.388996 39.112858-90.790764 91.236658 1.486311 37.969541 28.045554 58.972266 55.450851 74.772899 84.994149 46.487249 254.696619 72.852128 456.183288 73.572418 133.882363 0 254.959582-12.759412 345.018623-34.082265 45.103836-10.781475 82.318789-23.415122 111.210397-39.501586 27.439596-15.800634 53.953106-36.814792 55.450851-74.7729-4.584699-52.77549-46.338618-72.291903-92.677236-91.96838z m-752.302264-378.312c0-184.599884 149.534366-334.785941 333.333928-334.785941s333.276763 150.186057 333.276763 334.785941a335.197535 335.197535 0 0 1-115.783663 253.29034c-1.257648 1.143317-2.469564 2.229467-3.647179 3.429949L511.422636 876.29494 292.546123 656.915368a64.631682 64.631682 0 0 0-2.732526-2.583896 335.837792 335.837792 0 0 1-111.164665-248.980036z m333.333928 548.105935c-129.194766 0-246.316109-12.576482-328.703497-32.161493-41.159394-9.695324-73.61815-21.414318-92.997365-32.378724-9.683891-5.385021-15.880666-10.598544-18.293064-13.491135-0.125765-0.137198-0.137198-0.182931-0.240096-0.308695 10.987272-14.691617 98.691081-51.254879 215.835291-63.659863a35.168416 35.168416 0 0 0 30.114957-29.417534l145.384127 145.727122c13.331071 15.491939 30.81238 23.232192 48.282256 23.232192s34.951186-7.740253 48.282257-23.232192l141.771247-141.679782a35.225582 35.225582 0 0 0 29.280336 24.615605c73.378054 9.146532 134.659819 23.152159 174.813094 38.735563 20.019472 7.683087 34.653923 16.006431 41.97115 22.146041a36.586128 36.586128 0 0 1 4.287436 4.070207c-3.601447 3.887276-13.102407 11.913358-30.366486 19.43638-68.987718 32.641686-228.125943 58.777902-409.433076 58.366308z" p-id="4784" fill="#000000"></path></svg>