<?xml version="1.0" standalone="no"?><!DOCTYPE svg PUBLIC "-//W3C//DTD SVG 1.1//EN" "http://www.w3.org/Graphics/SVG/1.1/DTD/svg11.dtd"><svg t="1669774968858" class="icon" viewBox="0 0 1024 1024" version="1.1" xmlns="http://www.w3.org/2000/svg" p-id="2145" xmlns:xlink="http://www.w3.org/1999/xlink" width="200" height="200"><path d="M512.124762 1022.605538c-25.844031 0-46.48207-21.079619-46.48207-46.970132v-417.873808l-420.011984-0.232411a44.855197 44.855197 0 0 1-32.421244-13.898138 46.342624 46.342624 0 0 1-13.200907-33.23468c0.092964-25.82079 19.847844-46.807444 45.575669-46.807445L465.642692 463.798094V46.970132c0-25.890513 20.638039-46.970132 46.458829-46.970132C537.968793 0 558.606832 21.079619 558.606832 46.970132V464.123468l416.479346-0.139446c25.867272 0.092964 47.737086 21.242306 47.644122 47.109578-0.092964 25.82079-22.520563 46.853926-48.294871 46.853926L558.606832 558.086972v417.548434a46.644757 46.644757 0 0 1-46.48207 46.970132z" p-id="2146" fill="#7a7a7a"></path></svg>