<?xml version="1.0" standalone="no"?><!DOCTYPE svg PUBLIC "-//W3C//DTD SVG 1.1//EN" "http://www.w3.org/Graphics/SVG/1.1/DTD/svg11.dtd"><svg t="1774336348096" class="icon" viewBox="0 0 1024 1024" version="1.1" xmlns="http://www.w3.org/2000/svg" p-id="32673" width="26" height="26" xmlns:xlink="http://www.w3.org/1999/xlink"><path d="M384.426667 597.333333H128c-23.466667 0-42.666667 19.2-42.666667 42.666667s19.2 42.666667 42.666667 42.666667h256.426667v76.373333c0 19.2 23.04 28.586667 36.266666 14.933333l118.613334-119.04c8.106667-8.533333 8.106667-21.76 0-30.293333l-118.613334-119.04c-13.226667-13.653333-36.266667-3.84-36.266666 14.933333V597.333333z m255.146666-94.293333V426.666667H896c23.466667 0 42.666667-19.2 42.666667-42.666667s-19.2-42.666667-42.666667-42.666667h-256.426667V264.96c0-19.2-23.04-28.586667-36.266666-14.933333l-118.613334 119.04c-8.106667 8.533333-8.106667 21.76 0 30.293333l118.613334 119.04a21.333333 21.333333 0 0 0 36.266666-15.36z" p-id="32674" fill="#7A7A7A"></path></svg>