<?xml version="1.0" standalone="no"?><!DOCTYPE svg PUBLIC "-//W3C//DTD SVG 1.1//EN" "http://www.w3.org/Graphics/SVG/1.1/DTD/svg11.dtd"><svg t="1774334018403" class="icon" viewBox="0 0 1024 1024" version="1.1" xmlns="http://www.w3.org/2000/svg" p-id="28493" width="26" height="26" xmlns:xlink="http://www.w3.org/1999/xlink"><path d="M128 874.666667q0 26.517333 18.752 45.248Q165.482667 938.666667 192 938.666667h277.333333v-85.333334H213.333333V170.666667h597.333334v298.666666h85.333333V149.333333q0-26.517333-18.752-45.248Q858.517333 85.333333 832 85.333333H192q-26.517333 0-45.248 18.752Q128 122.816 128 149.333333v725.333334z" p-id="28494" fill="#7A7A7A"></path><path d="M298.666667 277.333333m21.333333 0l256 0q21.333333 0 21.333333 21.333334l0 42.666666q0 21.333333-21.333333 21.333334l-256 0q-21.333333 0-21.333333-21.333334l0-42.666666q0-21.333333 21.333333-21.333334Z" p-id="28495" fill="#7A7A7A"></path><path d="M298.666667 448m21.333333 0l341.333333 0q21.333333 0 21.333334 21.333333l0 42.666667q0 21.333333-21.333334 21.333333l-341.333333 0q-21.333333 0-21.333333-21.333333l0-42.666667q0-21.333333 21.333333-21.333333Z" p-id="28496" fill="#7A7A7A"></path><path d="M567.658667 760.384l-11.157334 36.906667-11.52 38.144a21.333333 21.333333 0 0 0 26.581334 26.602666l75.029333-22.72 229.632-229.653333a21.333333 21.333333 0 0 0 0-30.165333l-48.746667-48.746667a21.333333 21.333333 0 0 0-30.165333 0L567.658667 760.384z" p-id="28497" fill="#7A7A7A"></path></svg>