<svg t="1730967555776" class="icon" viewBox="0 0 1024 1024" version="1.1" xmlns="http://www.w3.org/2000/svg" p-id="4284" width="32" height="32"><path d="M512 512m-512 0a512 512 0 1 0 1024 0 512 512 0 1 0-1024 0Z" fill="#5CAFFF" p-id="4285"></path><path d="M693.8624 777.966933H330.1376a22.9376 22.9376 0 0 1-22.7328-23.1424V338.5344c0-12.765867 10.171733-23.1424 22.7328-23.1424h45.499733v23.1424c0 12.765867 10.1376 23.1424 22.698667 23.1424h227.328a22.9376 22.9376 0 0 0 22.698667-23.1424V315.392h45.499733c12.561067 0 22.7328 10.376533 22.7328 23.1424v416.290133a22.9376 22.9376 0 0 1-22.7328 23.1424zM494.933333 431.104h-102.2976a17.2032 17.2032 0 0 0-16.9984 17.339733c0 9.557333 7.5776 17.339733 16.9984 17.339734H494.933333a17.2032 17.2032 0 0 0 17.066667-17.339734 17.2032 17.2032 0 0 0-17.066667-17.339733zM631.364267 512h-238.728534a17.2032 17.2032 0 0 0-16.9984 17.339733c0 9.557333 7.5776 17.339733 16.9984 17.339734h238.728534c9.489067-0.1024 17.066667-7.850667 16.9984-17.339734a17.2032 17.2032 0 0 0-16.9984-17.339733z m0 80.964267h-238.728534a17.2032 17.2032 0 0 0-16.9984 17.339733c0 9.557333 7.5776 17.339733 16.9984 17.339733h238.728534c9.489067-0.1024 17.066667-7.850667 16.9984-17.339733a17.2032 17.2032 0 0 0-16.9984-17.339733z m-17.066667-254.429867h-204.5952a11.4688 11.4688 0 0 1-11.3664-11.5712v-23.108267c0-6.382933 5.085867-11.605333 11.3664-11.605333h56.832c0-25.463467 20.343467-46.216533 45.4656-46.216533 25.088 0 45.4656 20.718933 45.4656 46.2848h56.832c6.2464 0 11.3664 5.12 11.3664 11.537066v23.1424c0 6.382933-5.12 11.537067-11.3664 11.537067zM512 280.712533a11.4688 11.4688 0 0 0-11.3664 11.5712c0 6.382933 5.085867 11.5712 11.3664 11.5712a11.4688 11.4688 0 0 0 11.3664-11.605333 11.4688 11.4688 0 0 0-11.3664-11.537067z" fill="#FFFFFF" p-id="4286"></path></svg>