<?xml version="1.0" encoding="utf-8"?>
<svg version="1.1" xmlns:xlink="http://www.w3.org/1999/xlink" width="16px" height="16px" xmlns="http://www.w3.org/2000/svg">
  <g transform="matrix(1 0 0 1 -11 -6 )">
    <path d="M 15.143335192414947 0.09810479375696701  C 15.351552333147426 -0.026755852842811123  15.55382041271612 -0.020810107766632058  15.750139431121026 0.11594202898550776  C 15.946458449525936 0.2586399108138231  16.026770775237036 0.44890375325157805  15.991076408254322 0.6867335562987744  L 13.706636921360849 14.385730211817169  C 13.676891615541923 14.558156819026383  13.58170663692136 14.69193608324043  13.421081985499164 14.787068004459309  C 13.337795129206173 14.834633965068747  13.245584681167504 14.858416945373467  13.144450641383157 14.858416945373467  C 13.079010968581521 14.858416945373467  13.0076222346161 14.843552582683017  12.930284439486893 14.813823857302118  L 8.22755158951478 12.896321070234114  L 5.568321249302844 15.812709030100335  C 5.461238148354712 15.937569676700111  5.321435211005763 16  5.148912437255995 16  C 5.065625580963005 16  4.997211377579475 15.98810850984764  4.94366982710541 15.96432552954292  C 4.8306376649934935 15.922705314009661  4.741401747536718 15.852842809364548  4.6759620747350805 15.75473801560758  C 4.610522401933445 15.656633221850614  4.577802565532627 15.54812337421033  4.577802565532627 15.429208472686733  L 4.577802565532627 11.397993311036789  L 0.36586726157278304 9.67670011148272  C 0.1457519985127347 9.593459680416201  0.026770775237032907 9.429951690821255  0.008923591745677636 9.186176142697882  C -0.008923591745677636 8.954292084726866  0.0862613868748838 8.77889260497956  0.294478527607362 8.659977703455965  L 15.143335192414947 0.09810479375696701  Z M 8.307863915225878 11.692307692307693  L 12.698271054099274 13.48494983277592  L 14.670384829894033 1.6856187290969906  L 1.8739542665923035 9.061315496098103  L 4.872281093139989 10.283166109253067  L 12.573340769659788 4.58416945373467  L 8.307863915225878 11.692307692307693  Z " fill-rule="nonzero" fill="#ffffff" stroke="none" transform="matrix(1 0 0 1 11 6 )" />
  </g>
</svg>