<?xml version="1.0" standalone="no"?><!DOCTYPE svg PUBLIC "-//W3C//DTD SVG 1.1//EN" "http://www.w3.org/Graphics/SVG/1.1/DTD/svg11.dtd"><svg t="1744767394799" class="icon" viewBox="0 0 1024 1024" version="1.1" xmlns="http://www.w3.org/2000/svg" p-id="12268" width="48" height="48" xmlns:xlink="http://www.w3.org/1999/xlink"><path d="M512 1024C229.229714 1024 0 794.770286 0 512S229.229714 0 512 0s512 229.229714 512 512-229.229714 512-512 512z m414.208-497.737143c-9.252571 0-13.897143 0-32.329143 4.571429-55.442286 18.505143-110.811429 41.581714-166.253714 55.442285-36.937143 9.216-73.874286 13.860571-115.456 18.468572-18.468571 0-23.113143-9.252571-13.897143-27.721143 4.644571-9.216 13.897143-13.860571 18.505143-23.076571 23.076571-27.721143 46.189714-50.834286 64.658286-78.518858 18.468571-23.076571 41.545143-50.797714 55.405714-83.126857 23.113143-46.189714 4.644571-87.771429-41.545143-110.811428-32.329143-18.505143-64.658286-23.113143-101.595429-18.505143-147.785143 13.860571-277.101714 69.266286-378.697142 180.114286-27.721143 32.329143-55.442286 69.266286-69.302858 115.456-13.824 46.189714 9.252571 83.126857 55.442286 96.987428 32.329143 13.860571 69.266286 9.252571 101.595429 4.608 50.797714-9.216 96.987429-23.076571 143.177143-46.189714-36.937143 9.252571-73.874286 13.897143-110.848 18.505143-32.329143 4.608-64.658286 0-92.379429-9.252572-27.684571-13.860571-32.329143-36.937143-13.860571-55.405714 18.505143-18.468571 36.937143-27.721143 55.442285-41.581714 9.216-4.608 13.860571-9.216 13.860572-18.468572v-36.937143c69.266286 18.468571 129.28 9.216 184.685714-27.721142 4.644571 4.608 4.644571 9.252571 4.644571 9.252571l9.252572 9.216c4.608 0 4.608-4.608 4.608-9.216-4.608-13.897143-13.860571-23.113143-32.329143-27.721143 4.608 4.608 4.608 9.252571 9.252571 13.860572-46.189714 32.329143-96.987429 41.545143-152.429714 23.076571a36.059429 36.059429 0 0 1 18.468572-18.468571c13.897143-13.860571 23.113143-27.721143 9.252571-46.189715v-4.608a1225.362286 1225.362286 0 0 1 263.241143-69.266285l-23.076572-23.113143c4.608 0 9.216-4.608 13.824-4.608 32.329143 13.860571 64.658286 23.113143 92.379429 36.937143 18.468571 9.252571 23.076571 27.721143 13.860571 46.189714-13.860571 23.113143-27.721143 46.189714-46.189714 69.266286-27.721143 32.329143-60.050286 64.658286-87.771428 101.632-13.824 13.824-23.04 36.937143-32.292572 55.405714-9.252571 18.468571 0 36.937143 23.076572 41.545143a174.921143 174.921143 0 0 0 69.266285 0c101.632-23.076571 193.974857-69.266286 286.354286-120.064z" fill="#FF6600" p-id="12269"></path></svg>