<svg id="图层_1" data-name="图层 1" xmlns="http://www.w3.org/2000/svg" xmlns:xlink="http://www.w3.org/1999/xlink" viewBox="0 0 500 500"><defs><style>.cls-1,.cls-8{fill:none;}.cls-2{clip-path:url(#clip-path);}.cls-3{fill:#cfd3d9;}.cls-4{fill:#596c80;}.cls-5{fill:#fff;}.cls-6{fill:#97aac6;}.cls-7{fill:#617387;}.cls-8{stroke:#e5e5e6;stroke-linecap:round;stroke-linejoin:round;stroke-width:9px;}</style><clipPath id="clip-path"><rect class="cls-1" x="122.99" y="75.86" width="264.9" height="331.48"/></clipPath></defs><g class="cls-2"><path class="cls-3" d="M338,125.7V76.07H152.11a29.17,29.17,0,0,0-29.17,29.17V377.76a29.17,29.17,0,0,0,29.17,29.17h219a16.54,16.54,0,0,0,16.54-16.54V125.7ZM156.37,321.39a12.42,12.42,0,0,1-8.29-21.65,12.15,12.15,0,0,1,6.21-3,12.41,12.41,0,1,1,2.08,24.65Zm0-79.89a12.41,12.41,0,1,1,12.41-12.41,12.41,12.41,0,0,1-12.41,12.41Zm0-79.89a12.4,12.4,0,1,1,12.41-12.4,12.41,12.41,0,0,1-12.41,12.4Zm5.77,18.07"/></g><path class="cls-4" d="M338,125.7h49.63L338,76.07Zm0,0"/><path class="cls-3" d="M387.63,175.33V125.7H338Zm0,0"/><path class="cls-5" d="M182.56,142.62H348v16.54H182.56Zm0,78.36H348v16.54H182.56Zm0,78.29h135.8v16.54H182.56Zm0,0"/><path class="cls-6" d="M402.15,287.61a37.68,37.68,0,0,1,5,3.09,6.59,6.59,0,0,0,1.54-1.92A6.33,6.33,0,0,0,397.42,283a6,6,0,0,0-.67,2.37,36.63,36.63,0,0,1,5.4,2.23ZM345.38,398.45l-19.24-9.85a21.93,21.93,0,1,0,38.47,19.7Zm0,0"/><path class="cls-7" d="M403.63,405.45c-6.62-3.4-6.27-9.8-2.3-17.55,1.56-3,21.53-43.55,21.53-43.55,9.77-19.07.41-44.61-21.24-55.7S353.77,284.89,344,304c0,0-21.2,39.86-22.76,42.92-4,7.74-9,11.77-15.58,8.38-6.34-3.25-11.06-2-13.82,3.38-2.34,4.56.07,10.49,5.33,13.19l98,50.18c5.27,2.7,11.49,1.19,13.82-3.38,2.76-5.38,1-9.94-5.33-13.18Zm0,0"/><path class="cls-5" d="M185.42,398.49h0l-33.09-.7a20.56,20.56,0,0,1-20-20.64l.41-34.93a.85.85,0,0,1,1.69,0L134,377.17a18.86,18.86,0,0,0,18.39,18.93l33.1.7a.85.85,0,0,1,0,1.69Z"/><path class="cls-5" d="M133.65,336.36a.85.85,0,0,1-.83-.85l.07-8.09a.83.83,0,0,1,.85-.84h0a.84.84,0,0,1,.83.85l-.06,8.09a.85.85,0,0,1-.85.84Z"/><path class="cls-8" d="M382.21,295.33a31.38,31.38,0,0,0-23,9.07"/></svg>